<?xml version="1.0" encoding="utf-8"?>
<!DOCTYPE svg PUBLIC "-//W3C//DTD SVG 1.1//EN" "http://www.w3.org/Graphics/SVG/1.1/DTD/svg11.dtd">
<svg version="1.1" baseProfile="full"
 xmlns="http://www.w3.org/2000/svg"
 xmlns:xlink="http://www.w3.org/1999/xlink"
 xmlns:ev="http://www.w3.org/2001/xml-events" 
  height="50px" 
  width="156px" 
>
<defs>
<filter filterUnits="userSpaceOnUse" id="Filter_0" x="322px" y="567px" width="164px" height="58px"  >
  <feOffset in="SourceAlpha" dx="0px" dy="0px" />
  <feGaussianBlur result="blurOut" stdDeviation="2" />
  <feFlood flood-color="rgb( 0, 0, 0 )" result="floodOut" />
  <feComposite operator="atop" in="floodOut" in2="blurOut" />
  <feComponentTransfer><feFuncA type="linear" slope="0.25"/></feComponentTransfer>
  <feMerge>
    <feMergeNode/>
    <feMergeNode in="SourceGraphic"/>
  </feMerge>
</filter>
<linearGradient id="PSgrad_0" x1="0%" x2="0%" y1="100%" y2="0%">
  <stop offset="0%" stop-color="rgb(17,152,222)" stop-opacity="1" />
  <stop offset="100%" stop-color="rgb(23,177,230)" stop-opacity="1" />
</linearGradient>

</defs><g filter="url(#Filter_0)">
<path fill="rgb( 20, 165, 226 )"
 d="M137,50 C137,50 13,50 13,50 C13,50 0,50 0,50 C0,50 0,0 0,0 C0,0 13,0 13,0 C13,0 139,0 139,0 C139,0 156,0 156,0 C156,0 137,50 137,50 Z "/>
</g>
<path fill="url(#PSgrad_0)"
 d="M137,50 C137,50 13,50 13,50 C13,50 0,50 0,50 C0,50 0,0 0,0 C0,0 13,0 13,0 C13,0 139,0 139,0 C139,0 156,0 156,0 C156,0 137,50 137,50 Z "/>
</svg>
